# xmcd CD database file
# Copyright (C) 1997 Ti Kan
#
# Track frame offsets:
#  150
#  11608
#  26313
#  40495
#  50490
#  63310
#  76660
#  87330
#  99080
#  110883
#  119548
#  131608
#
# Disc length: 1872 seconds
#
# Revision: 1
# Processed by: cddbd v1.4b41PL1 Copyright (c) Steve Scherf et al.
# Submitted via: CDWizzard Release:4.23
#
DISCID=94074e0c
DTITLE=Johnny Horton - Battle Of New Orleans
DYEAR=1900
DGENRE=
TTITLE0=The Battle Of New Orleans
TTITLE1=Sink The Bismark
TTITLE2=Comanche (The Brave Horse)
TTITLE3=Honky Tonk Man
TTITLE4=North To Alaska
TTITLE5=Whispering Pines
TTITLE6=Johnny Reb
TTITLE7=Rock Island Line
TTITLE8=When It's Springtime In Alaska (It's 40 Below)
TTITLE9=All Grown Up
TTITLE10=Sleepy Eyed John
TTITLE11=I'm A One Woman Man
EXTD=
EXTT0=
EXTT1=
EXTT2=
EXTT3=
EXTT4=
EXTT5=
EXTT6=
EXTT7=
EXTT8=
EXTT9=
EXTT10=
EXTT11=
PLAYORDER=
